<mxfile host="app.diagrams.net" modified="2020-11-20T09:26:39.042Z" agent="5.0 (Windows NT 10.0; Win64; x64) AppleWebKit/537.36 (KHTML, like Gecko) Chrome/87.0.4280.66 Safari/537.36" etag="LY8yGsxboJrGcXTjvrny" version="13.9.2" type="github">
  <diagram name="Page-1" id="e7e014a7-5840-1c2e-5031-d8a46d1fe8dd">
    <mxGraphModel dx="1218" dy="1137" grid="1" gridSize="10" guides="1" tooltips="1" connect="1" arrows="1" fold="1" page="1" pageScale="1" pageWidth="1169" pageHeight="826" background="#ffffff" math="0" shadow="0">
      <root>
        <mxCell id="0" />
        <mxCell id="1" parent="0" />
        <mxCell id="NpmBq6_6a4zDWUZxVn7e-44" value="&lt;font style=&quot;font-size: 24px&quot;&gt;View&lt;/font&gt;" style="rounded=1;whiteSpace=wrap;html=1;" vertex="1" parent="1">
          <mxGeometry x="480" y="120" width="200" height="60" as="geometry" />
        </mxCell>
        <mxCell id="NpmBq6_6a4zDWUZxVn7e-45" value="&lt;font style=&quot;font-size: 24px&quot;&gt;Model&lt;/font&gt;" style="rounded=1;whiteSpace=wrap;html=1;" vertex="1" parent="1">
          <mxGeometry x="240" y="360" width="200" height="60" as="geometry" />
        </mxCell>
        <mxCell id="NpmBq6_6a4zDWUZxVn7e-46" value="&lt;font face=&quot;helvetica&quot;&gt;&lt;span style=&quot;font-size: 24px&quot;&gt;Controller&lt;/span&gt;&lt;/font&gt;" style="rounded=1;whiteSpace=wrap;html=1;" vertex="1" parent="1">
          <mxGeometry x="720" y="360" width="200" height="60" as="geometry" />
        </mxCell>
        <mxCell id="NpmBq6_6a4zDWUZxVn7e-47" value="" style="shape=flexArrow;endArrow=classic;html=1;exitX=1;exitY=1;exitDx=0;exitDy=0;entryX=0.5;entryY=0;entryDx=0;entryDy=0;" edge="1" parent="1" source="NpmBq6_6a4zDWUZxVn7e-44" target="NpmBq6_6a4zDWUZxVn7e-46">
          <mxGeometry width="50" height="50" relative="1" as="geometry">
            <mxPoint x="560" y="640" as="sourcePoint" />
            <mxPoint x="610" y="590" as="targetPoint" />
          </mxGeometry>
        </mxCell>
        <mxCell id="NpmBq6_6a4zDWUZxVn7e-48" value="" style="shape=flexArrow;endArrow=classic;html=1;exitX=0;exitY=0.5;exitDx=0;exitDy=0;entryX=1;entryY=0.5;entryDx=0;entryDy=0;" edge="1" parent="1" source="NpmBq6_6a4zDWUZxVn7e-46" target="NpmBq6_6a4zDWUZxVn7e-45">
          <mxGeometry width="50" height="50" relative="1" as="geometry">
            <mxPoint x="590" y="420" as="sourcePoint" />
            <mxPoint x="640" y="370" as="targetPoint" />
          </mxGeometry>
        </mxCell>
        <mxCell id="NpmBq6_6a4zDWUZxVn7e-49" value="" style="shape=flexArrow;endArrow=classic;html=1;exitX=0;exitY=1;exitDx=0;exitDy=0;entryX=0.5;entryY=0;entryDx=0;entryDy=0;" edge="1" parent="1" source="NpmBq6_6a4zDWUZxVn7e-44" target="NpmBq6_6a4zDWUZxVn7e-45">
          <mxGeometry width="50" height="50" relative="1" as="geometry">
            <mxPoint x="560" y="640" as="sourcePoint" />
            <mxPoint x="610" y="590" as="targetPoint" />
          </mxGeometry>
        </mxCell>
        <mxCell id="NpmBq6_6a4zDWUZxVn7e-54" value="" style="endArrow=classic;html=1;entryX=0;entryY=0;entryDx=0;entryDy=0;exitX=0.215;exitY=-0.017;exitDx=0;exitDy=0;exitPerimeter=0;" edge="1" parent="1" source="NpmBq6_6a4zDWUZxVn7e-45" target="NpmBq6_6a4zDWUZxVn7e-44">
          <mxGeometry relative="1" as="geometry">
            <mxPoint x="150" y="290" as="sourcePoint" />
            <mxPoint x="250" y="290" as="targetPoint" />
          </mxGeometry>
        </mxCell>
        <mxCell id="NpmBq6_6a4zDWUZxVn7e-55" value="&lt;font style=&quot;font-size: 16px&quot;&gt;Event&lt;/font&gt;" style="edgeLabel;resizable=0;html=1;align=center;verticalAlign=middle;" connectable="0" vertex="1" parent="NpmBq6_6a4zDWUZxVn7e-54">
          <mxGeometry relative="1" as="geometry">
            <mxPoint x="-11.590000000000003" y="0.6199999999999992" as="offset" />
          </mxGeometry>
        </mxCell>
      </root>
    </mxGraphModel>
  </diagram>
</mxfile>
